<svg xmlns="http://www.w3.org/2000/svg" xmlns:xlink="http://www.w3.org/1999/xlink" width="820.905" height="332.503" viewBox="0 0 820.905 332.503">
  <defs>
    <style>
      .cls-1 {
        clip-path: url(#clip-path);
      }

      .cls-2 {
        clip-path: url(#clip-path-2);
      }

      .cls-3 {
        fill: #5e17eb;
      }

      .cls-4 {
        clip-path: url(#clip-path-4);
      }

      .cls-5 {
        clip-path: url(#clip-path-5);
      }

      .cls-6 {
        fill: #000650;
      }
    </style>
    <clipPath id="clip-path">
      <rect id="Rectangle_3" data-name="Rectangle 3" width="235.556" height="207.565"/>
    </clipPath>
    <clipPath id="clip-path-2">
      <rect id="Rectangle_2" data-name="Rectangle 2" width="253.175" height="147.07" transform="translate(0 142.411) rotate(-34.229)"/>
    </clipPath>
    <clipPath id="clip-path-4">
      <rect id="Rectangle_6" data-name="Rectangle 6" width="236.771" height="205.091"/>
    </clipPath>
    <clipPath id="clip-path-5">
      <rect id="Rectangle_5" data-name="Rectangle 5" width="253.175" height="147.07" transform="translate(0 137.752) rotate(-32.964)"/>
    </clipPath>
  </defs>
  <g id="Subi_Dark" transform="translate(-54.2 -66.9)">
    <g id="Group_6" data-name="Group 6" transform="translate(54.2 191.838)">
      <g id="Group_5" data-name="Group 5" class="cls-1">
        <g id="Group_4" data-name="Group 4" transform="translate(-7.607 -7.418)">
          <g id="Group_3" data-name="Group 3" class="cls-2" transform="translate(0)">
            <g id="Group_2" data-name="Group 2">
              <g id="Group_1" data-name="Group 1" class="cls-2">
                <path id="Path_1" data-name="Path 1" class="cls-3" d="M63.5,479.133c.564-.391,1.085-.694,1.692-1.042.564-.3,1.172-.607,1.779-.868s1.215-.477,1.866-.694a13.649,13.649,0,0,1,1.909-.477c.651-.13,1.3-.217,1.953-.3s1.3-.087,1.953-.13c.651,0,1.3.043,1.953.087a15.044,15.044,0,0,1,1.953.26,21.762,21.762,0,0,1,3.775,1.128c.608.26,1.215.521,1.779.825s1.172.651,1.692,1a18.793,18.793,0,0,1,1.606,1.172c.521.434,1,.868,1.475,1.3.477.477.911.955,1.345,1.432a18.325,18.325,0,0,1,1.172,1.562,86.386,86.386,0,1,0,142.861-97.165c-.391-.564-.694-1.128-1.042-1.693-.3-.564-.608-1.172-.868-1.779s-.477-1.215-.694-1.866a15.351,15.351,0,0,1-.477-1.909c-.13-.651-.217-1.3-.3-1.953a17.633,17.633,0,0,1-.043-3.906,15.056,15.056,0,0,1,.26-1.953,21.762,21.762,0,0,1,1.128-3.776c.26-.608.521-1.215.825-1.779s.651-1.172,1-1.692a13.788,13.788,0,0,1,1.172-1.606c.434-.521.868-1,1.3-1.475.477-.477.955-.911,1.432-1.345a18.315,18.315,0,0,1,1.562-1.172c.564-.391,1.085-.694,1.692-1.042.564-.3,1.172-.608,1.779-.868s1.215-.477,1.866-.694a13.649,13.649,0,0,1,1.909-.477c.651-.13,1.3-.217,1.953-.3s1.3-.087,1.953-.13c.651,0,1.3.043,1.953.087a15.054,15.054,0,0,1,1.953.26,21.761,21.761,0,0,1,3.775,1.128c.608.26,1.215.521,1.779.825s1.172.651,1.692,1a18.783,18.783,0,0,1,1.606,1.172c.521.434,1,.868,1.475,1.3.477.477.911.955,1.345,1.432a18.314,18.314,0,0,1,1.172,1.562c39.317,57.8,24.389,136.786-33.328,176.059S97.432,564.8,58.115,506.993c-.391-.564-.694-1.128-1.042-1.692-.3-.564-.608-1.172-.868-1.779s-.477-1.215-.694-1.866a13.648,13.648,0,0,1-.477-1.909c-.13-.651-.217-1.3-.3-1.953a17.633,17.633,0,0,1-.043-3.906,15.054,15.054,0,0,1,.26-1.953,21.761,21.761,0,0,1,1.128-3.775c.26-.608.521-1.215.825-1.779s.651-1.172,1-1.693a18.791,18.791,0,0,1,1.172-1.606c.434-.521.868-1,1.3-1.476.477-.477.955-.911,1.432-1.345A16.4,16.4,0,0,1,63.5,479.133Z" transform="translate(-46.82 -347.948)"/>
              </g>
            </g>
          </g>
        </g>
      </g>
    </g>
    <g id="Group_12" data-name="Group 12" transform="translate(98.942 66.9)">
      <g id="Group_11" data-name="Group 11" class="cls-4">
        <g id="Group_10" data-name="Group 10" transform="translate(-48.009 -48.408)">
          <g id="Group_9" data-name="Group 9" class="cls-5" transform="translate(0 0)">
            <g id="Group_8" data-name="Group 8" transform="translate(0)">
              <g id="Group_7" data-name="Group 7" class="cls-5">
                <path id="Path_2" data-name="Path 2" class="cls-3" d="M385.711,152.91c-.564.347-1.128.694-1.692,1s-1.172.564-1.779.825a13.547,13.547,0,0,1-1.866.651,21.607,21.607,0,0,1-3.862.694c-.651.043-1.3.087-1.953.087a14.763,14.763,0,0,1-1.953-.13c-.651-.087-1.3-.174-1.953-.3a13.74,13.74,0,0,1-1.909-.521c-.608-.217-1.258-.434-1.866-.694s-1.215-.564-1.779-.868a17.829,17.829,0,0,1-1.693-1.042,14.926,14.926,0,0,1-1.562-1.215,14.146,14.146,0,0,1-1.432-1.345,13.777,13.777,0,0,1-1.3-1.475c-.391-.521-.781-1.042-1.172-1.606a86.4,86.4,0,1,0-144.987,94c.347.564.694,1.128,1,1.692s.564,1.172.825,1.779a13.543,13.543,0,0,1,.651,1.866c.174.651.347,1.259.477,1.909a15.055,15.055,0,0,1,.26,1.953c.043.651.087,1.3.087,1.953a14.76,14.76,0,0,1-.13,1.953c-.087.651-.174,1.3-.3,1.953a13.738,13.738,0,0,1-.521,1.909c-.217.608-.434,1.258-.694,1.866s-.564,1.215-.868,1.779a17.826,17.826,0,0,1-1.042,1.692c-.391.521-.781,1.085-1.215,1.562a14.143,14.143,0,0,1-1.345,1.432c-.477.434-.955.911-1.475,1.3-.521.434-1.042.781-1.606,1.172-.564.347-1.128.694-1.692,1s-1.172.564-1.779.825-1.215.434-1.866.651a15.116,15.116,0,0,1-1.909.434c-.651.087-1.3.217-1.953.26s-1.3.087-1.953.087a14.761,14.761,0,0,1-1.953-.13c-.651-.087-1.3-.174-1.953-.3a15.613,15.613,0,0,1-1.909-.521c-.608-.217-1.259-.434-1.866-.694s-1.215-.564-1.779-.868a17.816,17.816,0,0,1-1.692-1.042c-.521-.391-1.085-.781-1.562-1.215a14.152,14.152,0,0,1-1.432-1.345,13.768,13.768,0,0,1-1.3-1.475c-.434-.521-.781-1.042-1.172-1.606-38.059-58.672-21.351-137.306,37.234-175.278S353.685,66.378,391.7,125.007c.347.564.694,1.128,1,1.692s.564,1.172.825,1.779a13.553,13.553,0,0,1,.651,1.866,15.116,15.116,0,0,1,.434,1.909c.087.651.217,1.3.26,1.953s.087,1.3.087,1.953a14.76,14.76,0,0,1-.13,1.953c-.087.651-.174,1.3-.3,1.953a13.74,13.74,0,0,1-.521,1.909c-.217.608-.434,1.258-.694,1.866s-.564,1.215-.868,1.779a17.8,17.8,0,0,1-1.042,1.692,14.929,14.929,0,0,1-1.215,1.562,14.148,14.148,0,0,1-1.345,1.432,13.777,13.777,0,0,1-1.475,1.3A8.653,8.653,0,0,1,385.711,152.91Z" transform="translate(-110.175 -18.664)"/>
              </g>
            </g>
          </g>
        </g>
      </g>
    </g>
    <g id="Group_15" data-name="Group 15" transform="translate(426.447 152.045)">
      <g id="Group_14" data-name="Group 14" transform="translate(0 0)">
        <g id="Group_13" data-name="Group 13">
          <path id="Path_3" data-name="Path 3" class="cls-6" d="M422.776-88.922q0,22.588-16.187,34.587Q390.381-42.423,364.451-42.4q-31.115,0-47.562-15.276Q300.42-72.974,299.4-97.384h18.747c.694,11.457,4.687,20.83,11.934,28.034,7.291,7.2,18.53,10.806,33.806,10.806q17.706,0,28.9-7.594,11.2-7.551,11.2-22.479a30.448,30.448,0,0,0-9.634-22.87q-9.634-9.243-35.585-17.489-25.973-8.462-39.968-19.528T304.781-179.36c0-14.364,5.208-25.994,15.666-34.8S344.185-227.4,360.285-227.4q27.014,0,42.919,15.406,15.948,15.427,16.447,36.757H401.9a38.816,38.816,0,0,0-11.457-25.04q-10.415-10.676-30.681-10.676-16.469,0-26.342,8.723a27.913,27.913,0,0,0-9.894,21.828q0,13.344,10.285,21.047c6.857,5.121,17.966,10.111,33.415,14.885q28.251,8.983,41.878,22.219Q422.776-108.971,422.776-88.922Z" transform="translate(-299.4 227.4)"/>
        </g>
      </g>
    </g>
    <g id="Group_18" data-name="Group 18" transform="translate(576.796 205.987)">
      <g id="Group_17" data-name="Group 17" transform="translate(0)">
        <g id="Group_16" data-name="Group 16" transform="translate(0)">
          <path id="Path_4" data-name="Path 4" class="cls-6" d="M452.64,27.957q-20.049,0-32.894-13.757Q406.922.466,406.9-24.205V-103.1h17.706v75.032q0,19.789,9.113,29.944t24.562,10.155A32.456,32.456,0,0,0,481.932,2.4Q491.7-7.237,491.7-26.245v-76.812h17.749V25.4H496.861L493.78,8.95H492C483.365,21.621,470.3,27.957,452.64,27.957Z" transform="translate(-406.9 103.1)"/>
        </g>
      </g>
    </g>
    <g id="Group_21" data-name="Group 21" transform="translate(710.156 151.481)">
      <g id="Group_20" data-name="Group 20" transform="translate(0 0)">
        <g id="Group_19" data-name="Group 19" transform="translate(0 0)">
          <path id="Path_5" data-name="Path 5" class="cls-6" d="M561.925-176.755q25.712,0,42.4,18.747,16.729,18.747,16.708,48.04,0,29.293-16.447,48.04Q588.114-43.18,562.706-43.18q-27.991,0-43.179-22.61h-2.04l-3.862,20.049H501.3V-228.7h17.489v76.334Q530.831-176.776,561.925-176.755ZM560.362-58.8q19.268,0,31.462-14.277c8.159-9.5,12.194-21.785,12.194-36.887s-4.079-27.34-12.194-36.887c-8.159-9.5-18.617-14.277-31.462-14.277q-18.747,0-30.334,14.147-11.587,14.126-11.587,37.017,0,22.913,11.587,37.017C537.8-63.533,547.864-58.8,560.362-58.8Z" transform="translate(-501.3 228.7)"/>
        </g>
      </g>
    </g>
    <g id="Group_24" data-name="Group 24" transform="translate(849.675 158.728)">
      <g id="Group_23" data-name="Group 23" transform="translate(0 0)">
        <g id="Group_22" data-name="Group 22" transform="translate(0 0)">
          <path id="Path_6" data-name="Path 6" class="cls-6" d="M604.545-187.09a12.642,12.642,0,0,1-9.113-3.6,11.982,11.982,0,0,1-3.732-8.983,11.5,11.5,0,0,1,3.862-8.723,12.776,12.776,0,0,1,8.983-3.6,12.327,12.327,0,0,1,8.853,3.6,11.683,11.683,0,0,1,3.732,8.723,11.981,11.981,0,0,1-3.732,8.983A12.327,12.327,0,0,1,604.545-187.09Zm8.723,22.349V-36.288H595.779V-164.741Z" transform="translate(-591.7 212)"/>
        </g>
      </g>
    </g>
  </g>
</svg>
